<svg xmlns="http://www.w3.org/2000/svg" viewBox="0 0 1080 1080" width="1080" height="1080"><g transform="translate(-4.50,-0.50)"><g transform="translate(65.00,388.00) scale(0.62021,0.61538)"><path fill="#F6F2E8" fill-rule="evenodd" d="M107.38,477.99C105.45,477.90 103.20,477.70 102.38,477.55C101.55,477.40 100.14,477.21 99.25,477.13C94.47,476.67 83.76,474.36 78.25,472.58C77.63,472.38 76.69,472.11 76.16,471.98C75.63,471.85 74.88,471.57 74.49,471.37C74.09,471.17 73.57,471.00 73.32,470.99C73.08,470.99 72.42,470.77 71.88,470.50C71.33,470.23 70.67,470.01 70.43,470.01C70.18,470.00 69.54,469.77 69.00,469.50C68.46,469.23 67.82,469.00 67.57,468.99C67.33,468.99 66.67,468.77 66.12,468.50C65.58,468.23 64.98,468.01 64.80,468.01C64.62,468.00 64.06,467.78 63.55,467.51C63.04,467.25 61.16,466.34 59.38,465.49C57.59,464.65 55.84,463.81 55.50,463.63C55.16,463.45 53.75,462.71 52.38,462.00C51.00,461.28 49.42,460.43 48.88,460.10C48.33,459.77 47.54,459.32 47.12,459.11C45.16,458.06 44.04,457.35 41.62,455.62C40.26,454.64 39.82,454.35 37.75,453.05C34.94,451.28 34.31,450.83 31.38,448.51C25.17,443.58 16.00,434.79 16.00,433.75C16.00,432.97 16.55,433.03 18.49,434.04C19.52,434.57 20.46,435.00 20.58,435.00C20.70,435.00 21.15,435.16 21.59,435.36C22.52,435.79 25.06,436.69 26.12,436.97C26.54,437.08 27.24,437.36 27.68,437.59C28.12,437.81 28.66,438.00 28.89,438.00C29.11,438.00 29.65,438.16 30.09,438.36C31.09,438.82 33.61,439.71 34.77,440.00C35.26,440.13 35.99,440.40 36.39,440.61C36.79,440.82 37.29,441.00 37.50,441.00C37.71,441.00 38.55,441.22 39.38,441.49C40.20,441.75 41.50,442.14 42.26,442.36C45.78,443.34 55.44,444.88 59.50,445.11C60.81,445.18 63.17,445.37 64.75,445.51C68.55,445.87 82.02,445.86 86.12,445.50C87.91,445.35 90.78,445.12 92.50,445.01C95.90,444.78 99.77,444.25 103.50,443.48C104.81,443.22 106.10,443.00 106.38,443.00C106.87,443.00 109.04,442.44 112.27,441.49C113.17,441.22 114.07,441.00 114.27,440.99C114.46,440.99 115.08,440.77 115.62,440.50C116.17,440.23 116.81,440.01 117.04,440.01C117.27,440.00 118.06,439.79 118.79,439.53C119.52,439.27 121.14,438.74 122.38,438.35C123.61,437.96 124.91,437.50 125.25,437.32C125.59,437.15 126.02,437.00 126.20,437.00C126.38,437.00 126.94,436.78 127.45,436.51C128.27,436.08 130.42,435.06 133.00,433.88C135.51,432.74 141.88,429.14 145.32,426.94C146.13,426.42 146.83,426.00 146.88,426.00C146.93,426.00 147.50,425.63 148.13,425.19C148.77,424.74 149.48,424.26 149.71,424.12C150.08,423.89 150.74,423.45 152.75,422.08C153.09,421.84 153.82,421.30 154.38,420.87C154.93,420.43 156.16,419.53 157.12,418.86C158.09,418.19 159.16,417.40 159.50,417.09C159.84,416.79 160.76,416.06 161.53,415.46C167.02,411.24 174.51,404.06 179.61,398.12C181.34,396.12 184.18,392.39 186.93,388.55C187.45,387.82 188.13,386.91 188.43,386.52C188.74,386.13 190.00,384.31 191.25,382.47C192.49,380.63 195.05,376.84 196.94,374.04C198.83,371.25 200.66,368.53 201.00,367.99C201.34,367.46 202.75,365.38 204.12,363.36C205.50,361.35 206.74,359.52 206.88,359.29C207.02,359.06 207.47,358.38 207.88,357.77C208.29,357.17 208.79,356.42 209.00,356.11C209.21,355.80 212.86,350.34 217.12,343.97C221.39,337.61 224.93,332.28 225.00,332.14C225.07,331.99 225.46,331.38 225.88,330.77C226.29,330.17 226.79,329.42 227.00,329.10C227.41,328.49 231.03,323.13 235.62,316.38C237.21,314.04 240.43,309.26 242.80,305.75C245.16,302.24 248.11,297.87 249.36,296.04C250.60,294.20 251.79,292.44 252.00,292.12C252.56,291.25 257.46,284.02 259.62,280.88C260.66,279.36 262.50,276.66 263.71,274.88C264.92,273.09 266.49,270.78 267.20,269.75C270.62,264.77 281.60,248.51 283.50,245.62C284.85,243.56 294.75,228.87 296.27,226.66C297.02,225.58 297.74,224.52 297.88,224.31C298.18,223.82 298.76,222.96 302.30,217.75C303.84,215.48 306.09,212.16 307.30,210.38C308.51,208.59 310.08,206.28 310.79,205.25C311.50,204.22 313.65,201.01 315.57,198.12C317.49,195.24 319.28,192.56 319.55,192.17C320.30,191.09 324.57,184.78 325.00,184.11C325.40,183.50 330.58,175.85 334.36,170.29C335.60,168.46 337.02,166.36 337.50,165.63C337.98,164.89 339.95,161.97 341.88,159.13C343.80,156.29 345.66,153.53 346.00,152.99C346.80,151.76 352.45,143.47 354.86,140.00C357.06,136.83 358.25,135.34 359.04,134.75L359.88,134.12L390.62,134.12C407.54,134.12 421.68,134.21 422.04,134.31C423.27,134.66 423.12,135.30 421.02,138.50C420.53,139.26 420.01,140.06 419.88,140.29C419.74,140.52 419.26,141.23 418.81,141.87C418.37,142.50 418.00,143.11 418.00,143.22C418.00,143.33 417.77,143.63 417.50,143.88C417.22,144.12 417.00,144.42 417.00,144.53C417.00,144.64 416.66,145.21 416.24,145.80C415.46,146.91 414.33,148.57 413.88,149.28C413.74,149.50 413.29,150.17 412.88,150.78C412.47,151.38 412.02,152.06 411.88,152.29C411.74,152.52 410.19,154.82 408.44,157.41C406.70,160.00 404.93,162.63 404.51,163.25C404.10,163.87 403.42,164.88 403.00,165.50C402.58,166.12 401.90,167.13 401.49,167.75C401.08,168.37 398.41,172.34 395.56,176.58C390.34,184.34 389.22,186.01 387.91,188.03C387.52,188.63 387.01,189.39 386.78,189.72C386.56,190.05 385.98,190.91 385.50,191.64C382.76,195.79 372.62,210.89 372.50,211.00C372.43,211.07 371.46,212.47 370.35,214.12C369.25,215.78 367.35,218.59 366.12,220.38C362.79,225.26 357.41,233.23 357.12,233.71C356.99,233.94 353.39,239.34 349.12,245.71C344.86,252.08 341.26,257.48 341.12,257.71C340.98,257.94 340.53,258.62 340.12,259.22C339.71,259.83 339.26,260.50 339.12,260.72C338.98,260.94 338.53,261.62 338.12,262.22C337.71,262.83 337.26,263.50 337.12,263.72C336.98,263.94 336.53,264.62 336.12,265.22C335.71,265.83 335.26,266.50 335.12,266.72C334.98,266.94 334.53,267.62 334.12,268.22C332.97,269.91 331.70,271.82 330.91,273.03C330.52,273.63 330.07,274.31 329.91,274.54C329.75,274.77 328.79,276.18 327.76,277.67C325.97,280.27 324.01,283.16 319.29,290.12C318.07,291.91 316.02,294.93 314.73,296.83C313.43,298.74 311.98,300.89 311.50,301.63C311.02,302.36 309.79,304.18 308.76,305.67C307.74,307.16 305.91,309.84 304.70,311.62C303.49,313.41 302.19,315.33 301.81,315.89C301.44,316.45 301.01,317.09 300.88,317.31C300.74,317.52 299.56,319.26 298.27,321.16C294.82,326.22 289.42,334.23 289.12,334.71C288.98,334.94 288.53,335.62 288.12,336.22C287.71,336.82 286.98,337.91 286.50,338.63C286.02,339.35 284.84,341.11 283.88,342.54C282.91,343.96 282.01,345.31 281.88,345.55C281.52,346.14 270.48,362.55 268.23,365.82C267.21,367.31 266.21,368.79 266.00,369.11C265.79,369.43 265.01,370.58 264.27,371.66C263.52,372.74 261.92,375.09 260.71,376.88C259.49,378.66 257.69,381.31 256.71,382.75C255.72,384.19 253.92,386.84 252.71,388.62C251.49,390.41 249.85,392.81 249.06,393.95C248.27,395.10 247.34,396.47 247.00,397.00C246.66,397.53 245.73,398.90 244.94,400.05C244.15,401.19 242.96,402.91 242.30,403.88C241.64,404.84 240.71,406.19 240.22,406.88C238.15,409.82 236.82,411.74 235.70,413.38C234.56,415.04 234.13,415.66 232.28,418.25C231.84,418.87 231.29,419.66 231.06,420.00C230.07,421.46 222.69,430.70 220.98,432.62C220.62,433.04 219.78,433.99 219.12,434.75C216.87,437.35 214.53,439.70 212.36,441.54C211.17,442.55 209.50,443.96 208.66,444.69C207.82,445.41 206.50,446.49 205.74,447.08C204.97,447.68 204.13,448.35 203.86,448.57C200.57,451.25 198.76,452.57 193.38,456.19C190.66,458.02 190.53,458.10 189.10,458.95C188.56,459.26 187.68,459.79 187.12,460.12C186.57,460.45 185.96,460.80 185.75,460.88C185.54,460.97 185.21,461.13 185.00,461.25C184.79,461.37 182.09,462.72 179.00,464.25C175.91,465.78 172.96,467.25 172.45,467.52C171.94,467.78 171.40,468.00 171.24,468.00C170.96,468.00 170.61,468.15 167.88,469.37C166.18,470.13 163.92,471.00 163.62,471.00C163.49,471.00 162.82,471.21 162.13,471.47C161.44,471.73 160.09,472.17 159.12,472.45C158.16,472.73 156.58,473.20 155.61,473.48C154.64,473.77 153.61,474.00 153.34,474.00C153.06,474.00 152.11,474.21 151.23,474.47C149.61,474.94 148.03,475.31 145.50,475.78C144.74,475.93 143.22,476.26 142.12,476.52C141.01,476.78 139.66,477.00 139.12,477.00C138.57,477.01 137.06,477.18 135.75,477.38C130.82,478.15 116.54,478.46 107.38,477.99ZM243.08,444.05C242.65,444.01 242.24,443.83 242.17,443.65C242.10,443.48 243.14,441.86 244.48,440.06C245.82,438.26 247.46,435.97 248.14,434.96C248.81,433.95 249.43,433.07 249.51,433.00C249.58,432.93 250.51,431.58 251.57,430.00C253.84,426.61 257.36,421.42 259.27,418.66C260.02,417.58 260.79,416.43 261.00,416.11C261.89,414.72 266.38,408.11 266.50,408.00C266.58,407.93 267.51,406.58 268.57,405.00C271.88,400.06 273.03,398.39 273.49,397.88C273.74,397.60 273.98,397.26 274.03,397.12C274.33,396.33 275.46,395.00 276.12,394.67C277.33,394.06 279.16,394.00 297.88,394.00C325.88,393.99 385.77,393.52 395.17,393.24C401.45,393.05 404.10,392.88 405.17,392.59C405.97,392.38 407.24,392.05 408.00,391.87C409.97,391.40 412.41,390.64 414.00,390.00C414.76,389.70 415.77,389.30 416.25,389.12C417.53,388.63 423.06,385.77 423.52,385.36C423.74,385.16 423.98,385.00 424.06,385.00C424.39,385.00 427.50,382.81 429.88,380.92C434.71,377.06 439.64,371.49 443.05,366.06C444.76,363.33 448.00,356.87 448.00,356.18C448.00,356.06 448.17,355.60 448.37,355.16C449.44,352.92 450.85,346.54 451.24,342.22C451.75,336.57 451.37,328.77 450.38,324.62C449.49,320.91 448.27,317.04 447.33,315.00C447.11,314.52 446.71,313.62 446.43,313.00C445.76,311.51 443.91,307.89 443.12,306.55C440.54,302.13 434.78,295.28 431.10,292.25C430.01,291.36 428.99,290.51 428.83,290.35C428.66,290.19 427.54,289.42 426.33,288.63C425.12,287.84 423.84,286.99 423.48,286.75C422.89,286.34 419.39,284.44 417.25,283.37C416.77,283.13 415.96,282.72 415.45,282.46C414.94,282.21 414.32,282.00 414.08,282.00C413.83,282.00 413.34,281.85 413.00,281.68C412.66,281.50 411.36,281.05 410.12,280.67C408.89,280.29 407.32,279.81 406.64,279.59C405.96,279.37 403.99,278.97 402.26,278.70C399.40,278.26 397.20,278.20 377.38,278.04C365.41,277.95 355.48,277.78 355.31,277.67C354.78,277.33 354.97,276.48 355.91,275.03C356.41,274.26 357.06,273.23 357.37,272.75C357.68,272.27 358.59,270.87 359.40,269.63C360.21,268.40 360.93,267.27 361.00,267.12C361.14,266.81 362.39,264.93 371.98,250.50C375.77,244.80 378.99,239.94 379.12,239.71C379.88,238.42 384.22,232.21 385.30,230.86C385.99,229.99 386.86,229.17 387.22,229.02C389.13,228.24 391.05,228.19 423.25,228.01C452.19,227.84 456.07,227.77 457.62,227.41C458.59,227.19 460.44,226.76 461.75,226.47C463.06,226.18 464.69,225.73 465.38,225.47C466.07,225.21 466.77,225.00 466.94,225.00C467.10,225.00 467.77,224.76 468.43,224.47C470.72,223.45 471.88,222.92 472.38,222.66C472.65,222.52 473.72,221.97 474.75,221.43C475.78,220.90 477.07,220.20 477.62,219.87C478.18,219.54 478.79,219.19 478.99,219.09C479.18,218.99 480.03,218.45 480.86,217.89C490.19,211.58 497.11,203.53 501.49,193.88C501.81,193.19 502.27,192.21 502.53,191.70C502.79,191.19 503.00,190.60 503.00,190.39C503.00,190.18 503.21,189.53 503.47,188.94C503.73,188.36 504.19,187.03 504.50,186.00C504.81,184.97 505.22,183.66 505.41,183.10C506.29,180.51 506.60,177.46 506.61,171.00C506.63,164.07 506.24,159.13 505.48,156.46C505.21,155.55 505.00,154.62 505.00,154.41C505.00,154.19 504.79,153.53 504.53,152.94C504.27,152.36 503.92,151.48 503.75,151.00C503.59,150.52 503.28,149.68 503.08,149.12C502.63,147.90 500.05,142.61 499.49,141.75C499.26,141.41 498.53,140.28 497.86,139.25C495.01,134.84 488.60,127.71 485.38,125.36C484.82,124.96 484.32,124.57 484.25,124.50C483.81,124.05 480.78,121.95 478.62,120.61C477.51,119.92 471.70,117.00 471.43,117.00C471.31,117.00 470.85,116.84 470.41,116.64C469.98,116.44 468.89,116.03 468.00,115.73C466.46,115.22 465.54,114.98 461.78,114.10C460.90,113.90 460.00,113.63 459.77,113.51C459.04,113.12 453.41,113.02 423.75,112.88C396.76,112.75 362.44,112.47 329.12,112.11C317.02,111.99 315.12,111.91 313.25,111.50C311.17,111.05 309.24,110.68 306.50,110.22C301.77,109.41 292.77,107.14 291.38,106.40C290.96,106.18 290.44,106.00 290.21,106.00C289.99,106.00 289.31,105.78 288.71,105.51C288.12,105.23 287.34,105.01 286.99,105.01C286.65,105.00 286.13,104.84 285.84,104.64C285.36,104.30 284.73,104.04 282.12,103.10C281.57,102.90 280.73,102.55 280.25,102.33C279.77,102.11 278.93,101.74 278.38,101.50C273.34,99.33 271.10,98.30 269.12,97.29C268.30,96.87 266.78,96.10 265.75,95.59C264.11,94.78 259.88,92.37 257.62,90.98C257.21,90.72 256.54,90.33 256.12,90.10C255.71,89.87 254.85,89.28 254.20,88.78C253.56,88.28 251.84,87.03 250.38,86.00C245.22,82.34 240.86,78.69 235.16,73.25C231.71,69.96 224.53,61.75 222.69,59.00C222.46,58.66 221.88,57.81 221.39,57.12C219.69,54.74 219.00,53.72 219.00,53.61C219.00,53.55 218.62,52.95 218.15,52.29C217.69,51.63 217.12,50.76 216.90,50.36C216.67,49.95 216.27,49.29 216.00,48.88C215.73,48.46 215.28,47.73 215.00,47.25C214.72,46.77 214.26,46.04 213.99,45.62C213.72,45.21 213.32,44.54 213.11,44.12C212.89,43.71 212.43,42.87 212.07,42.25C210.67,39.81 208.15,34.69 206.60,31.12C205.70,29.06 204.75,26.96 204.48,26.45C204.22,25.94 204.00,25.38 204.00,25.20C204.00,25.02 203.78,24.45 203.50,23.93C203.22,23.42 203.00,22.80 203.00,22.56C203.00,22.31 202.85,21.89 202.67,21.62C202.13,20.80 200.92,16.83 201.08,16.40C201.27,15.92 201.60,15.89 202.04,16.33C202.23,16.50 203.05,17.25 203.88,17.99C204.70,18.73 206.28,20.19 207.40,21.23C211.50,25.08 214.42,27.73 216.00,29.03C216.89,29.77 217.91,30.63 218.25,30.95C219.07,31.72 227.41,38.00 227.61,38.00C227.69,38.00 228.29,38.37 228.94,38.83C230.02,39.58 236.76,43.47 238.25,44.20C238.59,44.37 239.66,44.96 240.62,45.50C241.59,46.04 242.66,46.62 243.00,46.77C243.34,46.93 244.58,47.51 245.75,48.06C248.49,49.35 249.57,49.82 251.25,50.50C252.01,50.80 252.96,51.20 253.38,51.39C253.79,51.58 254.63,51.92 255.25,52.14C257.82,53.06 258.41,53.29 259.16,53.64C259.60,53.84 260.09,54.00 260.25,54.00C260.41,54.00 260.90,54.16 261.34,54.36C263.32,55.28 266.86,56.37 269.38,56.85C270.34,57.03 271.69,57.36 272.38,57.57C274.23,58.16 278.07,59.00 278.90,59.00C279.30,59.00 280.41,59.23 281.38,59.50C282.34,59.78 283.46,60.00 283.87,60.00C284.29,60.00 285.98,60.22 287.62,60.49C293.74,61.48 308.50,61.66 400.62,61.88C431.88,61.95 457.45,62.12 459.50,62.25C463.89,62.55 468.41,63.10 470.40,63.59C471.21,63.79 473.00,64.21 474.38,64.51C478.35,65.40 482.70,66.62 485.13,67.53C485.82,67.79 486.52,68.00 486.69,68.00C486.85,68.00 487.47,68.21 488.06,68.47C488.64,68.73 489.74,69.20 490.50,69.50C492.66,70.37 500.27,74.00 501.50,74.75C501.71,74.88 503.32,75.80 505.08,76.80C508.32,78.64 508.54,78.78 510.52,80.12C511.13,80.53 511.81,80.98 512.04,81.12C514.21,82.45 521.23,88.11 524.38,91.05C528.65,95.05 535.51,102.55 537.22,105.08C537.42,105.38 538.33,106.64 539.25,107.88C540.87,110.08 541.87,111.58 544.39,115.62C545.25,117.01 548.55,123.46 549.49,125.62C549.73,126.17 550.16,127.13 550.43,127.75C550.71,128.37 551.08,129.27 551.25,129.75C552.00,131.89 552.30,132.68 552.64,133.41C552.84,133.85 553.00,134.41 553.01,134.66C553.01,134.92 553.23,135.57 553.50,136.12C553.77,136.68 553.99,137.31 553.99,137.54C554.00,137.77 554.21,138.56 554.47,139.29C555.53,142.28 557.01,148.27 557.00,149.51C557.00,149.86 557.17,150.82 557.39,151.63C558.18,154.69 558.57,160.53 558.60,169.88C558.63,179.61 558.31,185.10 557.48,189.00C556.38,194.16 555.92,196.19 555.47,197.73C555.21,198.61 555.00,199.57 554.99,199.85C554.99,200.14 554.77,200.82 554.50,201.38C554.23,201.93 554.01,202.60 554.00,202.88C554.00,203.15 553.77,203.87 553.49,204.46C553.22,205.06 553.00,205.74 552.99,205.96C552.99,206.19 552.77,206.82 552.50,207.38C552.23,207.93 552.01,208.52 552.01,208.70C551.98,209.81 545.95,222.36 544.00,225.38C543.73,225.79 543.28,226.52 543.00,227.00C542.72,227.48 542.04,228.55 541.49,229.38C540.95,230.20 540.19,231.36 539.81,231.95C536.35,237.39 527.52,247.38 522.38,251.69C521.14,252.72 519.54,254.07 518.83,254.69C517.55,255.79 517.09,256.13 513.05,258.93C510.54,260.67 509.05,261.65 508.38,262.00C508.10,262.14 507.37,262.59 506.75,262.99C505.41,263.86 497.39,267.89 496.50,268.14C496.16,268.24 495.65,268.47 495.38,268.66C495.11,268.85 494.68,269.00 494.42,269.00C494.16,269.00 493.65,269.17 493.29,269.37C492.43,269.85 490.73,270.45 489.00,270.89C487.06,271.38 485.07,272.39 484.88,272.99C484.68,273.60 484.92,274.47 485.44,275.06C485.66,275.31 485.95,275.72 486.10,275.98C486.25,276.24 486.88,277.32 487.50,278.37C488.12,279.43 488.82,280.65 489.07,281.08C489.31,281.52 489.95,282.66 490.50,283.62C491.04,284.59 492.29,287.01 493.26,289.00C495.65,293.87 495.72,294.01 495.99,294.88C496.12,295.29 496.57,296.58 497.00,297.75C497.42,298.92 497.92,300.38 498.11,301.00C498.48,302.25 498.83,303.27 499.53,305.13C499.79,305.82 500.00,306.62 500.00,306.90C500.00,307.19 500.23,308.08 500.50,308.88C500.78,309.67 501.00,310.59 501.00,310.90C501.00,311.22 501.22,312.41 501.48,313.55C502.68,318.74 503.28,323.45 503.77,331.52C504.26,339.52 503.33,350.54 501.44,359.25C500.52,363.48 498.79,369.76 498.30,370.67C498.13,370.97 498.00,371.42 497.99,371.67C497.99,371.92 497.77,372.57 497.50,373.12C497.23,373.68 497.01,374.30 497.01,374.51C497.00,374.72 496.55,375.82 496.00,376.94C495.45,378.06 495.00,379.16 495.00,379.39C495.00,380.24 490.93,387.88 488.15,392.25C484.65,397.75 482.04,401.19 477.27,406.62C473.05,411.44 466.39,417.86 463.16,420.25C462.50,420.73 461.42,421.55 460.74,422.06C460.07,422.58 459.42,423.00 459.30,423.00C459.18,423.00 458.87,423.23 458.62,423.50C458.38,423.77 458.04,424.00 457.87,424.00C457.71,424.00 457.37,424.23 457.12,424.50C456.88,424.77 456.58,425.00 456.46,425.00C456.34,425.00 455.71,425.37 455.06,425.83C453.80,426.71 452.29,427.59 446.69,430.74C443.68,432.42 436.19,436.00 435.68,436.00C435.51,436.00 434.95,436.23 434.43,436.50C433.92,436.77 433.34,437.00 433.13,437.00C432.93,437.00 432.28,437.21 431.69,437.47C431.11,437.73 429.78,438.19 428.75,438.50C427.72,438.80 426.20,439.25 425.38,439.50C422.41,440.40 415.66,442.00 414.86,442.00C414.60,442.00 413.49,442.22 412.38,442.50C411.28,442.77 408.52,443.18 406.25,443.40C402.54,443.78 394.61,443.83 326.88,443.91C285.49,443.96 249.88,444.03 247.75,444.06C245.62,444.10 243.52,444.09 243.08,444.05ZM209.83,311.31C209.22,310.66 208.53,309.84 208.30,309.50C208.08,309.16 207.27,308.03 206.52,307.00C204.25,303.91 203.56,302.94 202.58,301.50C202.06,300.74 201.58,300.07 201.51,300.00C201.43,299.93 200.88,299.14 200.28,298.25C199.67,297.36 198.67,295.89 198.04,295.00C197.42,294.11 196.05,292.08 194.99,290.50C188.19,280.30 184.54,274.86 183.23,273.00C182.41,271.83 181.26,270.20 180.69,269.38C179.12,267.10 178.40,266.07 176.78,263.75C174.57,260.59 170.43,254.56 170.00,253.89C169.79,253.57 168.95,252.33 168.12,251.14C167.30,249.94 166.34,248.53 166.00,248.00C165.66,247.47 164.28,245.42 162.94,243.46C155.35,232.29 149.51,223.67 149.00,222.88C148.79,222.56 147.57,220.74 146.27,218.84C142.24,212.92 137.41,205.77 136.50,204.38C136.02,203.65 134.65,201.61 133.45,199.84C126.38,189.41 123.25,184.78 121.37,182.00C120.21,180.28 118.64,177.97 117.88,176.88C117.12,175.78 114.38,171.72 111.79,167.88C109.20,164.03 105.79,158.98 104.23,156.67C102.66,154.36 101.21,152.21 101.00,151.89C100.79,151.57 100.01,150.42 99.27,149.34C98.52,148.26 96.92,145.91 95.70,144.12C94.49,142.34 92.71,139.75 91.75,138.38C89.98,135.83 89.65,134.85 90.37,134.26C90.65,134.03 97.14,133.92 118.05,133.83C146.84,133.70 152.77,133.83 154.13,134.63C154.86,135.06 155.93,136.35 157.52,138.75C157.93,139.37 158.80,140.65 159.45,141.60C160.10,142.54 160.74,143.49 160.88,143.70C161.01,143.92 161.43,144.55 161.81,145.11C162.19,145.67 163.90,148.21 165.61,150.75C169.22,156.12 172.09,160.32 174.01,163.07C174.76,164.14 175.66,165.46 176.00,166.00C176.59,166.92 177.06,167.62 179.96,171.75C181.41,173.82 182.94,176.04 185.71,180.12C186.93,181.91 188.50,184.22 189.21,185.25C189.92,186.28 191.27,188.25 192.21,189.62C193.15,191.00 194.52,193.01 195.27,194.09C196.02,195.17 196.74,196.23 196.88,196.44C197.01,196.66 197.44,197.30 197.81,197.86C199.23,199.94 203.07,205.61 205.31,208.90C206.58,210.77 207.74,212.48 207.88,212.69C208.01,212.91 208.44,213.55 208.82,214.11C209.20,214.67 210.91,217.21 212.62,219.75C214.33,222.29 217.03,226.29 218.62,228.62C220.21,230.96 222.50,234.34 223.71,236.12C226.05,239.59 229.11,244.10 232.69,249.38C233.91,251.16 235.74,253.84 236.76,255.33C239.02,258.61 240.19,260.39 241.37,262.38C241.86,263.20 242.49,264.17 242.78,264.53C243.85,265.88 243.23,267.05 235.36,278.53C232.80,282.25 229.35,287.33 228.50,288.62C227.08,290.77 222.38,297.69 218.35,303.53C217.66,304.54 216.55,306.16 215.90,307.12C214.11,309.76 211.79,312.50 211.34,312.50C211.13,312.50 210.44,311.97 209.83,311.31Z"/></g><g fill="#F6F2E8" transform="translate(443.86,605.95) scale(0.61371)"><path d="M441 0 46 1490H498L617 912Q640 803 658.0 673.5Q676 544 693.5 415.0Q711 286 729 176H649Q670 286 689.0 415.0Q708 544 728.5 673.5Q749 803 774 912L906 1490H1310L1442 912Q1467 803 1487.5 673.5Q1508 544 1527.0 415.0Q1546 286 1567 176H1486Q1505 286 1522.0 415.0Q1539 544 1557.5 673.5Q1576 803 1598 912L1718 1490H2170L1775 0H1318L1170 607Q1132 764 1109.5 946.0Q1087 1128 1055 1296H1161Q1123 1128 1104.5 947.0Q1086 766 1047 607L898 0Z" transform="translate(0.00,0) scale(0.14648,-0.14648)"/><path d="M601 0V518L46 1490H521L736 1040Q765 979 788.0 914.5Q811 850 835 768H776Q798 850 819.0 914.5Q840 979 868 1040L1069 1490H1542L1003 518V0Z" transform="translate(324.61,0) scale(0.14648,-0.14648)"/><path d="M96 0V1490H742Q912 1490 1028.0 1444.0Q1144 1398 1203.0 1314.5Q1262 1231 1262 1118Q1262 1036 1226.0 968.0Q1190 900 1125.5 854.5Q1061 809 974 792V776Q1070 773 1148.5 728.5Q1227 684 1273.5 605.5Q1320 527 1320 422Q1320 300 1257.0 204.5Q1194 109 1077.0 54.5Q960 0 798 0ZM500 322H690Q791 322 842.5 361.0Q894 400 894 474Q894 527 870.0 563.5Q846 600 801.5 619.0Q757 638 696 638H500ZM500 888H666Q719 888 759.5 904.5Q800 921 823.0 952.5Q846 984 846 1030Q846 1098 796.5 1135.0Q747 1172 672 1172H500Z" transform="translate(557.23,0) scale(0.14648,-0.14648)"/><path d="M96 0V1490H1170V1164H500V912H1114V594H500V326H1166V0Z" transform="translate(757.62,0) scale(0.14648,-0.14648)"/></g></g></svg>